<?xml version="1.0" encoding="UTF-8"?>
<svg xmlns="http://www.w3.org/2000/svg" xmlns:xlink="http://www.w3.org/1999/xlink" width="456px" height="130px" viewBox="0 0 457 130" version="1.1">
<g id="surface1">
<path style=" stroke:none;fill-rule:nonzero;fill:rgb(100%,100%,100%);fill-opacity:1;" d="M 256.777344 43.429688 C 263.167969 48.054688 266.488281 54.230469 267.960938 61.835938 C 269.105469 69.574219 268.171875 77.976562 263.78125 84.613281 C 259.332031 90.410156 254.222656 94.015625 246.980469 95.257812 C 241.308594 95.8125 235.601562 94.722656 230.949219 91.300781 C 229.675781 90.25 228.554688 89.148438 227.378906 87.972656 C 227.195312 95.554688 227.011719 103.136719 226.820312 110.949219 C 221.828125 110.949219 216.839844 110.949219 211.699219 110.949219 C 211.699219 88.019531 211.699219 65.089844 211.699219 41.464844 C 216.6875 41.464844 221.679688 41.464844 226.820312 41.464844 C 227.003906 43.316406 227.191406 45.164062 227.378906 47.070312 C 228.015625 46.46875 228.652344 45.867188 229.304688 45.246094 C 236.703125 38.75 248.46875 38.394531 256.777344 43.429688 Z M 230.003906 57.332031 C 226.5 61.886719 226.269531 66.039062 226.820312 71.722656 C 227.328125 73.59375 228.035156 75.128906 229.058594 76.765625 C 229.382812 77.289062 229.707031 77.808594 230.039062 78.34375 C 232.855469 81.082031 236.082031 82.1875 239.972656 82.421875 C 244.007812 82.277344 247.050781 80.65625 249.933594 77.882812 C 253.183594 74.140625 253.539062 70.234375 253.390625 65.371094 C 252.851562 60.925781 250.898438 57.796875 247.453125 55 C 241.734375 51.410156 234.503906 52.453125 230.003906 57.332031 Z M 230.003906 57.332031 "/>
<path style=" stroke:none;fill-rule:nonzero;fill:rgb(100%,100%,100%);fill-opacity:1;" d="M 194.230469 44.617188 C 200.871094 49.777344 203.929688 57.394531 204.976562 65.558594 C 204.976562 67.964844 204.976562 70.367188 204.976562 72.84375 C 192.78125 72.84375 180.582031 72.84375 168.015625 72.84375 C 170.289062 77.398438 171.601562 79.039062 175.996094 80.898438 C 181.234375 81.773438 184.949219 80.621094 189.503906 77.988281 C 191.175781 77.238281 191.550781 77.269531 193.21875 77.886719 C 194.070312 78.585938 194.070312 78.585938 194.867188 79.457031 C 195.15625 79.773438 195.449219 80.089844 195.75 80.417969 C 196.042969 80.75 196.339844 81.082031 196.648438 81.425781 C 196.949219 81.75 197.25 82.078125 197.558594 82.414062 C 198.988281 83.988281 200.257812 85.414062 201.058594 87.414062 C 194.609375 93.199219 186.5 95.558594 177.921875 95.363281 C 170.398438 94.839844 163.605469 91.707031 158.390625 86.222656 C 152.617188 79.375 151.195312 72.050781 151.773438 63.320312 C 152.925781 55.683594 156.625 49.894531 162.503906 44.925781 C 171.777344 38.242188 184.84375 38.347656 194.230469 44.617188 Z M 168.714844 59.507812 C 167.910156 60.464844 167.910156 60.464844 168.015625 61.636719 C 175.40625 61.636719 182.800781 61.636719 190.417969 61.636719 C 188.660156 57.539062 187.292969 55.496094 183.136719 53.792969 C 176.625 52.992188 172.871094 54.585938 168.714844 59.507812 Z M 168.714844 59.507812 "/>
<path style=" stroke:none;fill-rule:nonzero;fill:rgb(100%,100%,100%);fill-opacity:1;" d="M 319.46875 45.398438 C 325.699219 50.210938 329.398438 55.566406 330.988281 63.320312 C 331.835938 71.476562 329.9375 78.722656 324.828125 85.171875 C 319.179688 91.375 312.179688 94.417969 303.921875 95.417969 C 295.945312 95.769531 288.300781 92.683594 282.335938 87.554688 C 279.648438 84.964844 277.714844 82.371094 276.105469 79.007812 C 275.875 78.558594 275.644531 78.105469 275.40625 77.640625 C 272.90625 71.96875 272.984375 64.960938 274.773438 59.082031 C 275.945312 56.089844 277.515625 53.53125 279.464844 50.992188 C 279.710938 50.648438 279.957031 50.300781 280.210938 49.949219 C 289.355469 38.054688 307.796875 37.429688 319.46875 45.398438 Z M 290.664062 57.714844 C 287.726562 62.308594 286.496094 66.375 287.542969 71.847656 C 288.785156 75.691406 291.5 78.941406 295.003906 80.933594 C 298.609375 82.496094 302.480469 82.859375 306.242188 81.707031 C 310.949219 79.828125 313.867188 76.914062 316.078125 72.390625 C 317.09375 67.203125 316.566406 63.28125 313.628906 58.835938 C 312.273438 57.199219 312.273438 57.199219 310.828125 56.035156 C 310.46875 55.722656 310.109375 55.410156 309.742188 55.089844 C 303.761719 51.28125 295.511719 52.730469 290.664062 57.714844 Z M 290.664062 57.714844 "/>
<path style=" stroke:none;fill-rule:nonzero;fill:rgb(100%,100%,100%);fill-opacity:1;" d="M 136.285156 42.214844 C 141.203125 45.300781 144.078125 49.320312 145.613281 54.914062 C 146.226562 59.210938 146.253906 63.449219 146.246094 67.785156 C 146.246094 68.523438 146.25 69.261719 146.25 70.019531 C 146.25 71.570312 146.25 73.121094 146.246094 74.671875 C 146.242188 76.660156 146.246094 78.652344 146.246094 80.640625 C 146.25 82.542969 146.25 84.445312 146.246094 86.34375 C 146.25 87.0625 146.25 87.777344 146.25 88.515625 C 146.246094 89.503906 146.246094 89.503906 146.246094 90.507812 C 146.246094 91.089844 146.246094 91.667969 146.242188 92.269531 C 146.171875 93.578125 146.171875 93.578125 145.613281 94.136719 C 144.535156 94.1875 143.453125 94.199219 142.371094 94.191406 C 141.390625 94.191406 141.390625 94.191406 140.386719 94.1875 C 139.699219 94.183594 139.007812 94.179688 138.296875 94.171875 C 137.257812 94.167969 137.257812 94.167969 136.199219 94.164062 C 134.484375 94.160156 132.769531 94.148438 131.050781 94.136719 C 131.046875 93.519531 131.046875 93.519531 131.046875 92.890625 C 131.023438 89 130.992188 85.109375 130.949219 81.21875 C 130.925781 79.21875 130.910156 77.21875 130.898438 75.21875 C 130.890625 73.285156 130.871094 71.355469 130.84375 69.421875 C 130.832031 68.332031 130.832031 67.242188 130.832031 66.152344 C 130.753906 61.429688 130.3125 58.097656 126.851562 54.632812 C 123.398438 53.152344 119.796875 53.261719 116.246094 54.421875 C 113.996094 56.070312 112.347656 57.820312 111.449219 60.515625 C 111.382812 61.609375 111.351562 62.703125 111.335938 63.792969 C 111.324219 64.46875 111.3125 65.140625 111.300781 65.832031 C 111.292969 66.558594 111.28125 67.289062 111.273438 68.035156 C 111.261719 68.789062 111.25 69.539062 111.238281 70.289062 C 111.207031 72.265625 111.179688 74.242188 111.152344 76.21875 C 111.125 78.234375 111.09375 80.25 111.0625 82.269531 C 111 86.226562 110.945312 90.179688 110.890625 94.136719 C 105.898438 94.136719 100.910156 94.136719 95.769531 94.136719 C 95.769531 76.757812 95.769531 59.375 95.769531 41.464844 C 100.757812 41.464844 105.75 41.464844 110.890625 41.464844 C 111.074219 42.945312 111.257812 44.425781 111.449219 45.949219 C 111.707031 45.730469 111.964844 45.515625 112.234375 45.292969 C 119.199219 39.726562 128.078125 38.183594 136.285156 42.214844 Z M 136.285156 42.214844 "/>
<path style=" stroke:none;fill-rule:nonzero;fill:rgb(100%,100%,100%);fill-opacity:1;" d="M 425.636719 45.949219 C 425.636719 48.125 425.554688 48.613281 424.535156 50.371094 C 424.195312 50.964844 424.195312 50.964844 423.84375 51.574219 C 423.484375 52.1875 423.484375 52.1875 423.117188 52.8125 C 422.875 53.230469 422.636719 53.648438 422.386719 54.078125 C 421.796875 55.105469 421.195312 56.132812 420.597656 57.15625 C 418.652344 57.15625 417.695312 56.644531 415.941406 55.824219 C 411.667969 54.003906 406.53125 52.421875 401.90625 53.722656 C 400.375 54.179688 400.375 54.179688 400.015625 55.335938 C 399.96875 55.75 399.921875 56.167969 399.875 56.59375 C 401.464844 58.570312 402.890625 59.25 405.300781 59.917969 C 405.925781 60.097656 406.546875 60.277344 407.1875 60.460938 C 408.480469 60.820312 409.773438 61.179688 411.066406 61.539062 C 417.625 63.433594 423.445312 65.753906 426.933594 71.898438 C 428.160156 76.707031 428.175781 81.105469 426.199219 85.734375 C 422.148438 91.714844 417.640625 93.628906 410.761719 94.957031 C 401.699219 96.378906 391.480469 93.898438 383.984375 88.605469 C 383.257812 88.015625 383.257812 88.015625 382.511719 87.414062 C 383.402344 84.859375 384.75 82.753906 386.222656 80.515625 C 386.460938 80.152344 386.695312 79.792969 386.9375 79.417969 C 387.515625 78.535156 388.09375 77.648438 388.675781 76.765625 C 390.632812 77.527344 392.519531 78.378906 394.414062 79.289062 C 399.117188 81.421875 403.652344 82.363281 408.835938 81.808594 C 410.828125 81.074219 410.828125 81.074219 412.195312 80.128906 C 412.195312 78.835938 412.195312 77.539062 412.195312 76.207031 C 409.105469 75.132812 406.003906 74.195312 402.84375 73.355469 C 389.636719 69.792969 389.636719 69.792969 385.875 63.878906 C 384.097656 60.40625 384.183594 55.925781 385.179688 52.210938 C 387.207031 46.859375 390.378906 43.964844 395.453125 41.4375 C 405.523438 37.660156 416.707031 41.039062 425.636719 45.949219 Z M 425.636719 45.949219 "/>
<path style=" stroke:none;fill-rule:nonzero;fill:rgb(100%,100%,100%);fill-opacity:1;" d="M 337.710938 22.972656 C 342.699219 22.972656 347.691406 22.972656 352.832031 22.972656 C 352.832031 46.273438 352.832031 69.574219 352.832031 93.578125 C 347.839844 93.578125 342.851562 93.578125 337.710938 93.578125 C 337.710938 70.277344 337.710938 46.980469 337.710938 22.972656 Z M 337.710938 22.972656 "/>
<path style=" stroke:none;fill-rule:nonzero;fill:rgb(100%,100%,100%);fill-opacity:1;" d="M 70.566406 41.464844 C 75.554688 41.464844 80.546875 41.464844 85.6875 41.464844 C 85.6875 58.847656 85.6875 76.230469 85.6875 94.136719 C 80.699219 94.136719 75.707031 94.136719 70.566406 94.136719 C 70.566406 76.757812 70.566406 59.375 70.566406 41.464844 Z M 70.566406 41.464844 "/>
<path style=" stroke:none;fill-rule:nonzero;fill:rgb(100%,100%,100%);fill-opacity:1;" d="M 361.792969 41.464844 C 366.78125 41.464844 371.773438 41.464844 376.914062 41.464844 C 376.914062 58.664062 376.914062 75.859375 376.914062 93.578125 C 371.921875 93.578125 366.933594 93.578125 361.792969 93.578125 C 361.792969 76.378906 361.792969 59.183594 361.792969 41.464844 Z M 361.792969 41.464844 "/>
<path style=" stroke:none;fill-rule:nonzero;fill:rgb(100%,100%,100%);fill-opacity:1;" d="M 33.042969 70.042969 C 33.289062 70.601562 33.289062 70.601562 33.539062 71.171875 C 35.257812 74.875 36.71875 77.261719 40.5 79.066406 C 43.789062 80.164062 47.507812 80.121094 50.648438 78.695312 C 51.121094 78.425781 51.597656 78.160156 52.085938 77.886719 C 55.074219 77.941406 56.980469 79.945312 59.15625 81.773438 C 59.898438 82.386719 60.640625 83 61.382812 83.613281 C 61.871094 84.019531 61.871094 84.019531 62.367188 84.4375 C 63.199219 85.101562 64.082031 85.703125 64.964844 86.292969 C 63.707031 89.539062 60.609375 90.863281 57.683594 92.457031 C 50.160156 95.773438 43.128906 96.085938 35.28125 93.578125 C 27.65625 90.34375 22.195312 84.808594 19.078125 77.117188 C 18.550781 75.324219 18.429688 74.117188 18.480469 72.285156 C 20.382812 71.90625 22.285156 71.535156 24.1875 71.164062 C 24.992188 71.003906 24.992188 71.003906 25.816406 70.839844 C 26.335938 70.738281 26.859375 70.636719 27.394531 70.535156 C 28.113281 70.390625 28.113281 70.390625 28.84375 70.25 C 30.265625 70.039062 31.609375 70.007812 33.042969 70.042969 Z M 33.042969 70.042969 "/>
<path style=" stroke:none;fill-rule:nonzero;fill:rgb(100%,100%,100%);fill-opacity:1;" d="M 60.742188 44.382812 C 62.523438 45.640625 63.628906 47.03125 64.964844 48.75 C 63.648438 49.828125 62.332031 50.902344 61.011719 51.972656 C 60.640625 52.273438 60.273438 52.574219 59.894531 52.886719 C 57.578125 54.757812 55.269531 56.308594 52.644531 57.714844 C 52.230469 57.449219 51.8125 57.183594 51.382812 56.910156 C 48.425781 55.226562 45.246094 54.941406 41.9375 55.773438 C 37.738281 57.234375 35.566406 59.386719 33.601562 63.320312 C 33.398438 64.0625 33.207031 64.808594 33.042969 65.558594 C 30.929688 65.199219 28.820312 64.839844 26.707031 64.476562 C 26.105469 64.371094 25.507812 64.269531 24.886719 64.164062 C 24.3125 64.066406 23.738281 63.964844 23.144531 63.863281 C 22.613281 63.773438 22.082031 63.683594 21.535156 63.589844 C 20.160156 63.320312 20.160156 63.320312 18.480469 62.757812 C 18.597656 56.929688 21.761719 52.011719 25.726562 47.910156 C 35.875 38.472656 48.847656 38.109375 60.742188 44.382812 Z M 60.742188 44.382812 "/>
<path style=" stroke:none;fill-rule:nonzero;fill:rgb(100%,100%,100%);fill-opacity:1;" d="M 372.433594 18.492188 C 374.902344 19.703125 376.484375 20.945312 377.472656 23.535156 C 377.84375 26.53125 377.851562 28.914062 376.527344 31.660156 C 374.324219 34.042969 372.332031 35.105469 369.074219 35.300781 C 365.507812 34.675781 363.710938 33.257812 361.617188 30.363281 C 360.777344 27.695312 360.957031 25.40625 361.898438 22.835938 C 364.613281 18.710938 367.765625 17.976562 372.433594 18.492188 Z M 372.433594 18.492188 "/>
<path style=" stroke:none;fill-rule:nonzero;fill:rgb(100%,100%,100%);fill-opacity:1;" d="M 80.648438 18.492188 C 83.523438 19.957031 85.226562 21.59375 86.246094 24.65625 C 86.46875 27.601562 86.1875 29.453125 84.566406 31.941406 C 82.863281 33.683594 81.660156 34.605469 79.316406 35.300781 C 76.828125 35.300781 74.96875 34.855469 72.804688 33.621094 C 70.132812 30.808594 69.808594 28.867188 69.847656 25.085938 C 70.128906 22.332031 71.429688 20.890625 73.4375 19.121094 C 75.851562 18.175781 78.085938 18.117188 80.648438 18.492188 Z M 80.648438 18.492188 "/>
<path style=" stroke:none;fill-rule:nonzero;fill:rgb(100%,100%,100%);fill-opacity:1;" d="M 176.414062 22.972656 C 181.40625 22.972656 186.394531 22.972656 191.535156 22.972656 C 191.121094 25.058594 190.855469 26.226562 189.941406 28.011719 C 189.761719 28.367188 189.582031 28.726562 189.394531 29.09375 C 189.167969 29.535156 188.9375 29.976562 188.703125 30.433594 C 187.609375 32.566406 187.609375 32.566406 186.496094 34.742188 C 181.507812 34.742188 176.515625 34.742188 171.375 34.742188 C 171.792969 32.65625 172.054688 31.488281 172.96875 29.703125 C 173.148438 29.347656 173.332031 28.992188 173.515625 28.621094 C 173.746094 28.179688 173.972656 27.738281 174.210938 27.28125 C 174.9375 25.859375 175.664062 24.4375 176.414062 22.972656 Z M 176.414062 22.972656 "/>
<path style=" stroke:none;fill-rule:nonzero;fill:rgb(100%,100%,100%);fill-opacity:1;" d="M 436.839844 89.09375 C 437.886719 89.691406 437.886719 89.691406 438.519531 90.777344 C 438.761719 92.738281 438.761719 92.738281 438.519531 94.699219 C 437.359375 96.027344 436.59375 96.316406 434.878906 96.660156 C 433.476562 96.378906 433.476562 96.378906 432.148438 95.152344 C 431.238281 93.578125 431.238281 93.578125 431.273438 92.105469 C 432.421875 89.199219 433.734375 88.707031 436.839844 89.09375 Z M 432.917969 91.335938 C 432.917969 92.261719 432.917969 93.183594 432.917969 94.136719 C 433.101562 94.136719 433.289062 94.136719 433.476562 94.136719 C 433.476562 93.214844 433.476562 92.289062 433.476562 91.335938 C 433.292969 91.335938 433.109375 91.335938 432.917969 91.335938 Z M 436.839844 91.898438 C 437.398438 93.578125 437.398438 93.578125 437.398438 93.578125 Z M 434.597656 93.578125 C 434.597656 94.132812 434.597656 94.6875 434.597656 95.257812 C 434.96875 95.257812 435.335938 95.257812 435.71875 95.257812 C 435.71875 94.703125 435.71875 94.148438 435.71875 93.578125 C 435.347656 93.578125 434.980469 93.578125 434.597656 93.578125 Z M 434.597656 93.578125 "/>
</g>
</svg>
